<?xml version="1.0" encoding="UTF-8"?>
<!DOCTYPE score-partwise PUBLIC "-//Recordare//DTD MusicXML 3.0 Partwise//EN" "http://www.musicxml.ord/dtds/3.0/partwise.dtd">
<score-partwise version="3.0">
  <identification>
    <encoding>
      <encoding-date>2021-02-19</encoding-date>
      <software>Essy Guitar Tab</software>
    </encoding>
  </identification>
  <credit>
    <credit-type>title</credit-type>
    <credit-words>Silent Night</credit-words>
  </credit>
  <part-list>
    <score-part id="P1">
      <part-name>Guitar</part-name>
      <part-abbreviation>gtr</part-abbreviation>
    </score-part>
  </part-list>
  <part id="P1">
    <measure number="1">
      <attributes>
        <divisions>2640</divisions>
        <time>
          <beats>4</beats>
          <beat-type>4</beat-type>
        </time>
        <key>
          <fifths>0</fifths>
        </key>
        <clef number="1">
          <sign>G</sign>
          <line>2</line>
        </clef>
        <transpose>
          <octave-change>-1</octave-change>
        </transpose>
        <staff-details>
          <staff-lines>6</staff-lines>
          <staff-tuning>
            <tuning-step>E</tuning-step>
            <tuning-alter>0</tuning-alter>
            <tuning-octave>2</tuning-octave>
          </staff-tuning>
          <staff-tuning>
            <tuning-step>A</tuning-step>
            <tuning-alter>0</tuning-alter>
            <tuning-octave>2</tuning-octave>
          </staff-tuning>
          <staff-tuning>
            <tuning-step>D</tuning-step>
            <tuning-alter>0</tuning-alter>
            <tuning-octave>3</tuning-octave>
          </staff-tuning>
          <staff-tuning>
            <tuning-step>G</tuning-step>
            <tuning-alter>0</tuning-alter>
            <tuning-octave>3</tuning-octave>
          </staff-tuning>
          <staff-tuning>
            <tuning-step>B</tuning-step>
            <tuning-alter>0</tuning-alter>
            <tuning-octave>3</tuning-octave>
          </staff-tuning>
          <staff-tuning>
            <tuning-step>E</tuning-step>
            <tuning-alter>0</tuning-alter>
            <tuning-octave>4</tuning-octave>
          </staff-tuning>
        </staff-details>
        <direction>
          <direction-type>
            <metronome>
              <beat-unit>quarter</beat-unit>
              <per-minute>80</per-minute>
            </metronome>
          </direction-type>
          <sound tempo="80"/>
        </direction>
      </attributes>
      <note>
        <duration>2640</duration>
        <staff>1</staff>
        <type>quarter</type>
        <voice>1</voice>
        <pitch>
          <step>D</step>
          <octave>4</octave>
        </pitch>
        <notations>
          <technical>
            <fret>3</fret>
            <string>2</string>
          </technical>
        </notations>
      </note>
      <note>
        <duration>2640</duration>
        <staff>1</staff>
        <type>quarter</type>
        <voice>1</voice>
        <pitch>
          <step>G</step>
          <octave>2</octave>
        </pitch>
        <notations>
          <technical>
            <fret>3</fret>
            <string>6</string>
          </technical>
        </notations>
        <chord/>
      </note>
      <note>
        <duration>2640</duration>
        <staff>1</staff>
        <type>quarter</type>
        <voice>1</voice>
        <pitch>
          <step>G</step>
          <octave>3</octave>
        </pitch>
        <notations>
          <technical>
            <fret>0</fret>
            <string>3</string>
          </technical>
        </notations>
      </note>
      <note>
        <duration>2640</duration>
        <staff>1</staff>
        <type>quarter</type>
        <voice>1</voice>
        <pitch>
          <step>D</step>
          <octave>3</octave>
        </pitch>
        <notations>
          <technical>
            <fret>0</fret>
            <string>4</string>
          </technical>
        </notations>
      </note>
      <note>
        <duration>2640</duration>
        <staff>1</staff>
        <type>quarter</type>
        <voice>1</voice>
        <pitch>
          <step>E</step>
          <octave>4</octave>
        </pitch>
        <notations>
          <technical>
            <fret>0</fret>
            <string>1</string>
          </technical>
        </notations>
      </note>
    </measure>
    <measure number="2">
      <attributes>
        <divisions>2640</divisions>
        <time>
          <beats>4</beats>
          <beat-type>4</beat-type>
        </time>
      </attributes>
      <note>
        <duration>2640</duration>
        <staff>1</staff>
        <type>quarter</type>
        <voice>1</voice>
        <pitch>
          <step>D</step>
          <octave>4</octave>
        </pitch>
        <notations>
          <technical>
            <fret>3</fret>
            <string>2</string>
          </technical>
        </notations>
      </note>
      <note>
        <duration>2640</duration>
        <staff>1</staff>
        <type>quarter</type>
        <voice>1</voice>
        <pitch>
          <step>B</step>
          <octave>3</octave>
        </pitch>
        <notations>
          <technical>
            <fret>0</fret>
            <string>2</string>
          </technical>
        </notations>
      </note>
      <note>
        <duration>2640</duration>
        <staff>1</staff>
        <type>quarter</type>
        <voice>1</voice>
        <pitch>
          <step>G</step>
          <octave>2</octave>
        </pitch>
        <notations>
          <technical>
            <fret>3</fret>
            <string>6</string>
          </technical>
        </notations>
        <chord/>
      </note>
      <note>
        <duration>2640</duration>
        <staff>1</staff>
        <type>quarter</type>
        <voice>1</voice>
        <pitch>
          <step>G</step>
          <octave>3</octave>
        </pitch>
        <notations>
          <technical>
            <fret>0</fret>
            <string>3</string>
          </technical>
        </notations>
      </note>
      <note>
        <duration>2640</duration>
        <staff>1</staff>
        <type>quarter</type>
        <voice>1</voice>
        <pitch>
          <step>D</step>
          <octave>3</octave>
        </pitch>
        <notations>
          <technical>
            <fret>0</fret>
            <string>4</string>
          </technical>
        </notations>
      </note>
    </measure>
    <measure number="3">
      <attributes>
        <divisions>2640</divisions>
        <time>
          <beats>4</beats>
          <beat-type>4</beat-type>
        </time>
      </attributes>
      <note>
        <duration>2640</duration>
        <staff>1</staff>
        <type>quarter</type>
        <voice>1</voice>
        <pitch>
          <step>G</step>
          <octave>3</octave>
        </pitch>
        <notations>
          <technical>
            <fret>0</fret>
            <string>3</string>
          </technical>
        </notations>
      </note>
      <note>
        <duration>2640</duration>
        <staff>1</staff>
        <type>quarter</type>
        <voice>1</voice>
        <pitch>
          <step>B</step>
          <octave>3</octave>
        </pitch>
        <notations>
          <technical>
            <fret>0</fret>
            <string>2</string>
          </technical>
        </notations>
      </note>
      <note>
        <duration>2640</duration>
        <staff>1</staff>
        <type>quarter</type>
        <voice>1</voice>
        <rest/>
      </note>
      <note>
        <duration>2640</duration>
        <staff>1</staff>
        <type>quarter</type>
        <voice>1</voice>
        <rest/>
      </note>
    </measure>
    <measure number="4">
      <attributes>
        <divisions>2640</divisions>
        <time>
          <beats>4</beats>
          <beat-type>4</beat-type>
        </time>
      </attributes>
      <note>
        <duration>2640</duration>
        <staff>1</staff>
        <type>quarter</type>
        <voice>1</voice>
        <pitch>
          <step>D</step>
          <octave>4</octave>
        </pitch>
        <notations>
          <technical>
            <fret>3</fret>
            <string>2</string>
          </technical>
        </notations>
      </note>
      <note>
        <duration>2640</duration>
        <staff>1</staff>
        <type>quarter</type>
        <voice>1</voice>
        <pitch>
          <step>G</step>
          <octave>2</octave>
        </pitch>
        <notations>
          <technical>
            <fret>3</fret>
            <string>6</string>
          </technical>
        </notations>
        <chord/>
      </note>
      <note>
        <duration>2640</duration>
        <staff>1</staff>
        <type>quarter</type>
        <voice>1</voice>
        <pitch>
          <step>G</step>
          <octave>3</octave>
        </pitch>
        <notations>
          <technical>
            <fret>0</fret>
            <string>3</string>
          </technical>
        </notations>
      </note>
      <note>
        <duration>2640</duration>
        <staff>1</staff>
        <type>quarter</type>
        <voice>1</voice>
        <pitch>
          <step>D</step>
          <octave>3</octave>
        </pitch>
        <notations>
          <technical>
            <fret>0</fret>
            <string>4</string>
          </technical>
        </notations>
      </note>
      <note>
        <duration>2640</duration>
        <staff>1</staff>
        <type>quarter</type>
        <voice>1</voice>
        <pitch>
          <step>E</step>
          <octave>4</octave>
        </pitch>
        <notations>
          <technical>
            <fret>0</fret>
            <string>1</string>
          </technical>
        </notations>
      </note>
    </measure>
    <measure number="5">
      <attributes>
        <divisions>2640</divisions>
        <time>
          <beats>4</beats>
          <beat-type>4</beat-type>
        </time>
      </attributes>
      <note>
        <duration>2640</duration>
        <staff>1</staff>
        <type>quarter</type>
        <voice>1</voice>
        <pitch>
          <step>D</step>
          <octave>4</octave>
        </pitch>
        <notations>
          <technical>
            <fret>3</fret>
            <string>2</string>
          </technical>
        </notations>
      </note>
      <note>
        <duration>2640</duration>
        <staff>1</staff>
        <type>quarter</type>
        <voice>1</voice>
        <pitch>
          <step>B</step>
          <octave>3</octave>
        </pitch>
        <notations>
          <technical>
            <fret>0</fret>
            <string>2</string>
          </technical>
        </notations>
      </note>
      <note>
        <duration>2640</duration>
        <staff>1</staff>
        <type>quarter</type>
        <voice>1</voice>
        <pitch>
          <step>G</step>
          <octave>2</octave>
        </pitch>
        <notations>
          <technical>
            <fret>3</fret>
            <string>6</string>
          </technical>
        </notations>
        <chord/>
      </note>
      <note>
        <duration>2640</duration>
        <staff>1</staff>
        <type>quarter</type>
        <voice>1</voice>
        <pitch>
          <step>G</step>
          <octave>3</octave>
        </pitch>
        <notations>
          <technical>
            <fret>0</fret>
            <string>3</string>
          </technical>
        </notations>
      </note>
      <note>
        <duration>2640</duration>
        <staff>1</staff>
        <type>quarter</type>
        <voice>1</voice>
        <pitch>
          <step>D</step>
          <octave>3</octave>
        </pitch>
        <notations>
          <technical>
            <fret>0</fret>
            <string>4</string>
          </technical>
        </notations>
      </note>
    </measure>
    <measure number="6">
      <attributes>
        <divisions>2640</divisions>
        <time>
          <beats>4</beats>
          <beat-type>4</beat-type>
        </time>
      </attributes>
      <note>
        <duration>2640</duration>
        <staff>1</staff>
        <type>quarter</type>
        <voice>1</voice>
        <pitch>
          <step>G</step>
          <octave>3</octave>
        </pitch>
        <notations>
          <technical>
            <fret>0</fret>
            <string>3</string>
          </technical>
        </notations>
      </note>
      <note>
        <duration>2640</duration>
        <staff>1</staff>
        <type>quarter</type>
        <voice>1</voice>
        <pitch>
          <step>B</step>
          <octave>3</octave>
        </pitch>
        <notations>
          <technical>
            <fret>0</fret>
            <string>2</string>
          </technical>
        </notations>
      </note>
      <note>
        <duration>2640</duration>
        <staff>1</staff>
        <type>quarter</type>
        <voice>1</voice>
        <rest/>
      </note>
      <note>
        <duration>2640</duration>
        <staff>1</staff>
        <type>quarter</type>
        <voice>1</voice>
        <rest/>
      </note>
    </measure>
    <measure number="7">
      <attributes>
        <divisions>2640</divisions>
        <time>
          <beats>4</beats>
          <beat-type>4</beat-type>
        </time>
      </attributes>
      <note>
        <duration>2640</duration>
        <staff>1</staff>
        <type>quarter</type>
        <voice>1</voice>
        <pitch>
          <step>A</step>
          <octave>4</octave>
        </pitch>
        <notations>
          <technical>
            <fret>5</fret>
            <string>1</string>
          </technical>
        </notations>
      </note>
      <note>
        <duration>2640</duration>
        <staff>1</staff>
        <type>quarter</type>
        <voice>1</voice>
        <pitch>
          <step>D</step>
          <octave>3</octave>
        </pitch>
        <notations>
          <technical>
            <fret>0</fret>
            <string>4</string>
          </technical>
        </notations>
        <chord/>
      </note>
      <note>
        <duration>2640</duration>
        <staff>1</staff>
        <type>quarter</type>
        <voice>1</voice>
        <pitch>
          <step>G</step>
          <octave>3</octave>
        </pitch>
        <notations>
          <technical>
            <fret>0</fret>
            <string>3</string>
          </technical>
        </notations>
      </note>
      <note>
        <duration>2640</duration>
        <staff>1</staff>
        <type>quarter</type>
        <voice>1</voice>
        <pitch>
          <step>B</step>
          <octave>3</octave>
        </pitch>
        <notations>
          <technical>
            <fret>0</fret>
            <string>2</string>
          </technical>
        </notations>
      </note>
      <note>
        <duration>2640</duration>
        <staff>1</staff>
        <type>quarter</type>
        <voice>1</voice>
        <pitch>
          <step>G</step>
          <octave>3</octave>
        </pitch>
        <notations>
          <technical>
            <fret>0</fret>
            <string>3</string>
          </technical>
        </notations>
      </note>
    </measure>
    <measure number="8">
      <attributes>
        <divisions>2640</divisions>
        <time>
          <beats>4</beats>
          <beat-type>4</beat-type>
        </time>
      </attributes>
      <note>
        <duration>2640</duration>
        <staff>1</staff>
        <type>quarter</type>
        <voice>1</voice>
        <pitch>
          <step>A</step>
          <octave>4</octave>
        </pitch>
        <notations>
          <technical>
            <fret>5</fret>
            <string>1</string>
          </technical>
        </notations>
      </note>
      <note>
        <duration>2640</duration>
        <staff>1</staff>
        <type>quarter</type>
        <voice>1</voice>
        <pitch>
          <step>F</step>
          <octave>4</octave>
          <alter>1</alter>
        </pitch>
        <notations>
          <technical>
            <fret>2</fret>
            <string>1</string>
          </technical>
        </notations>
      </note>
      <note>
        <duration>2640</duration>
        <staff>1</staff>
        <type>quarter</type>
        <voice>1</voice>
        <pitch>
          <step>D</step>
          <octave>3</octave>
        </pitch>
        <notations>
          <technical>
            <fret>0</fret>
            <string>4</string>
          </technical>
        </notations>
        <chord/>
      </note>
      <note>
        <duration>2640</duration>
        <staff>1</staff>
        <type>quarter</type>
        <voice>1</voice>
        <pitch>
          <step>G</step>
          <octave>3</octave>
        </pitch>
        <notations>
          <technical>
            <fret>0</fret>
            <string>3</string>
          </technical>
        </notations>
      </note>
      <note>
        <duration>2640</duration>
        <staff>1</staff>
        <type>quarter</type>
        <voice>1</voice>
        <pitch>
          <step>B</step>
          <octave>3</octave>
        </pitch>
        <notations>
          <technical>
            <fret>0</fret>
            <string>2</string>
          </technical>
        </notations>
      </note>
    </measure>
    <measure number="9">
      <attributes>
        <divisions>2640</divisions>
        <time>
          <beats>4</beats>
          <beat-type>4</beat-type>
        </time>
      </attributes>
      <note>
        <duration>2640</duration>
        <staff>1</staff>
        <type>quarter</type>
        <voice>1</voice>
        <pitch>
          <step>G</step>
          <octave>3</octave>
        </pitch>
        <notations>
          <technical>
            <fret>0</fret>
            <string>3</string>
          </technical>
        </notations>
      </note>
      <note>
        <duration>2640</duration>
        <staff>1</staff>
        <type>quarter</type>
        <voice>1</voice>
        <pitch>
          <step>B</step>
          <octave>3</octave>
        </pitch>
        <notations>
          <technical>
            <fret>0</fret>
            <string>2</string>
          </technical>
        </notations>
      </note>
      <note>
        <duration>2640</duration>
        <staff>1</staff>
        <type>quarter</type>
        <voice>1</voice>
        <pitch>
          <step>G</step>
          <octave>4</octave>
        </pitch>
        <notations>
          <technical>
            <fret>3</fret>
            <string>1</string>
          </technical>
        </notations>
      </note>
      <note>
        <duration>2640</duration>
        <staff>1</staff>
        <type>quarter</type>
        <voice>1</voice>
        <pitch>
          <step>D</step>
          <octave>3</octave>
        </pitch>
        <notations>
          <technical>
            <fret>0</fret>
            <string>4</string>
          </technical>
        </notations>
        <chord/>
      </note>
      <note>
        <duration>2640</duration>
        <staff>1</staff>
        <type>quarter</type>
        <voice>1</voice>
        <pitch>
          <step>G</step>
          <octave>3</octave>
        </pitch>
        <notations>
          <technical>
            <fret>0</fret>
            <string>3</string>
          </technical>
        </notations>
      </note>
    </measure>
    <measure number="10">
      <attributes>
        <divisions>2640</divisions>
        <time>
          <beats>4</beats>
          <beat-type>4</beat-type>
        </time>
      </attributes>
      <note>
        <duration>2640</duration>
        <staff>1</staff>
        <type>quarter</type>
        <voice>1</voice>
        <pitch>
          <step>B</step>
          <octave>3</octave>
        </pitch>
        <notations>
          <technical>
            <fret>0</fret>
            <string>2</string>
          </technical>
        </notations>
      </note>
      <note>
        <duration>2640</duration>
        <staff>1</staff>
        <type>quarter</type>
        <voice>1</voice>
        <pitch>
          <step>G</step>
          <octave>3</octave>
        </pitch>
        <notations>
          <technical>
            <fret>0</fret>
            <string>3</string>
          </technical>
        </notations>
      </note>
      <note>
        <duration>2640</duration>
        <staff>1</staff>
        <type>quarter</type>
        <voice>1</voice>
        <pitch>
          <step>G</step>
          <octave>4</octave>
        </pitch>
        <notations>
          <technical>
            <fret>3</fret>
            <string>1</string>
          </technical>
        </notations>
      </note>
      <note>
        <duration>2640</duration>
        <staff>1</staff>
        <type>quarter</type>
        <voice>1</voice>
        <pitch>
          <step>D</step>
          <octave>4</octave>
        </pitch>
        <notations>
          <technical>
            <fret>3</fret>
            <string>2</string>
          </technical>
        </notations>
      </note>
      <note>
        <duration>2640</duration>
        <staff>1</staff>
        <type>quarter</type>
        <voice>1</voice>
        <pitch>
          <step>G</step>
          <octave>2</octave>
        </pitch>
        <notations>
          <technical>
            <fret>3</fret>
            <string>6</string>
          </technical>
        </notations>
        <chord/>
      </note>
    </measure>
    <measure number="11">
      <attributes>
        <divisions>2640</divisions>
        <time>
          <beats>4</beats>
          <beat-type>4</beat-type>
        </time>
      </attributes>
      <note>
        <duration>2640</duration>
        <staff>1</staff>
        <type>quarter</type>
        <voice>1</voice>
        <pitch>
          <step>G</step>
          <octave>3</octave>
        </pitch>
        <notations>
          <technical>
            <fret>0</fret>
            <string>3</string>
          </technical>
        </notations>
      </note>
      <note>
        <duration>2640</duration>
        <staff>1</staff>
        <type>quarter</type>
        <voice>1</voice>
        <pitch>
          <step>D</step>
          <octave>3</octave>
        </pitch>
        <notations>
          <technical>
            <fret>0</fret>
            <string>4</string>
          </technical>
        </notations>
      </note>
      <note>
        <duration>2640</duration>
        <staff>1</staff>
        <type>quarter</type>
        <voice>1</voice>
        <pitch>
          <step>G</step>
          <octave>3</octave>
        </pitch>
        <notations>
          <technical>
            <fret>0</fret>
            <string>3</string>
          </technical>
        </notations>
      </note>
      <note>
        <duration>2640</duration>
        <staff>1</staff>
        <type>quarter</type>
        <voice>1</voice>
        <pitch>
          <step>D</step>
          <octave>4</octave>
        </pitch>
        <notations>
          <technical>
            <fret>3</fret>
            <string>2</string>
          </technical>
        </notations>
      </note>
    </measure>
    <measure number="12">
      <attributes>
        <divisions>2640</divisions>
        <time>
          <beats>4</beats>
          <beat-type>4</beat-type>
        </time>
      </attributes>
      <note>
        <duration>2640</duration>
        <staff>1</staff>
        <type>quarter</type>
        <voice>1</voice>
        <rest/>
      </note>
      <note>
        <duration>2640</duration>
        <staff>1</staff>
        <type>quarter</type>
        <voice>1</voice>
        <rest/>
      </note>
      <note>
        <duration>2640</duration>
        <staff>1</staff>
        <type>quarter</type>
        <voice>1</voice>
        <rest/>
      </note>
      <note>
        <duration>2640</duration>
        <staff>1</staff>
        <type>quarter</type>
        <voice>1</voice>
        <rest/>
      </note>
    </measure>
    <measure number="13">
      <attributes>
        <divisions>2640</divisions>
        <time>
          <beats>4</beats>
          <beat-type>4</beat-type>
        </time>
      </attributes>
      <note>
        <duration>2640</duration>
        <staff>1</staff>
        <type>quarter</type>
        <voice>1</voice>
        <pitch>
          <step>E</step>
          <octave>4</octave>
        </pitch>
        <notations>
          <technical>
            <fret>0</fret>
            <string>1</string>
          </technical>
        </notations>
      </note>
      <note>
        <duration>2640</duration>
        <staff>1</staff>
        <type>quarter</type>
        <voice>1</voice>
        <pitch>
          <step>G</step>
          <octave>2</octave>
        </pitch>
        <notations>
          <technical>
            <fret>3</fret>
            <string>6</string>
          </technical>
        </notations>
        <chord/>
      </note>
      <note>
        <duration>2640</duration>
        <staff>1</staff>
        <type>quarter</type>
        <voice>1</voice>
        <pitch>
          <step>G</step>
          <octave>3</octave>
        </pitch>
        <notations>
          <technical>
            <fret>0</fret>
            <string>3</string>
          </technical>
        </notations>
      </note>
      <note>
        <duration>2640</duration>
        <staff>1</staff>
        <type>quarter</type>
        <voice>1</voice>
        <pitch>
          <step>B</step>
          <octave>3</octave>
        </pitch>
        <notations>
          <technical>
            <fret>0</fret>
            <string>2</string>
          </technical>
        </notations>
      </note>
      <note>
        <duration>2640</duration>
        <staff>1</staff>
        <type>quarter</type>
        <voice>1</voice>
        <pitch>
          <step>G</step>
          <octave>3</octave>
        </pitch>
        <notations>
          <technical>
            <fret>0</fret>
            <string>3</string>
          </technical>
        </notations>
      </note>
    </measure>
    <measure number="14">
      <attributes>
        <divisions>2640</divisions>
        <time>
          <beats>4</beats>
          <beat-type>4</beat-type>
        </time>
      </attributes>
      <note>
        <duration>2640</duration>
        <staff>1</staff>
        <type>quarter</type>
        <voice>1</voice>
        <pitch>
          <step>E</step>
          <octave>4</octave>
        </pitch>
        <notations>
          <technical>
            <fret>0</fret>
            <string>1</string>
          </technical>
        </notations>
      </note>
      <note>
        <duration>2640</duration>
        <staff>1</staff>
        <type>quarter</type>
        <voice>1</voice>
        <pitch>
          <step>G</step>
          <octave>4</octave>
        </pitch>
        <notations>
          <technical>
            <fret>3</fret>
            <string>1</string>
          </technical>
        </notations>
      </note>
      <note>
        <duration>2640</duration>
        <staff>1</staff>
        <type>quarter</type>
        <voice>1</voice>
        <pitch>
          <step>D</step>
          <octave>3</octave>
        </pitch>
        <notations>
          <technical>
            <fret>0</fret>
            <string>4</string>
          </technical>
        </notations>
        <chord/>
      </note>
      <note>
        <duration>2640</duration>
        <staff>1</staff>
        <type>quarter</type>
        <voice>1</voice>
        <pitch>
          <step>G</step>
          <octave>3</octave>
        </pitch>
        <notations>
          <technical>
            <fret>0</fret>
            <string>3</string>
          </technical>
        </notations>
      </note>
      <note>
        <duration>2640</duration>
        <staff>1</staff>
        <type>quarter</type>
        <voice>1</voice>
        <pitch>
          <step>B</step>
          <octave>3</octave>
        </pitch>
        <notations>
          <technical>
            <fret>0</fret>
            <string>2</string>
          </technical>
        </notations>
      </note>
    </measure>
    <measure number="15">
      <attributes>
        <divisions>2640</divisions>
        <time>
          <beats>4</beats>
          <beat-type>4</beat-type>
        </time>
      </attributes>
      <note>
        <duration>2640</duration>
        <staff>1</staff>
        <type>quarter</type>
        <voice>1</voice>
        <pitch>
          <step>F</step>
          <octave>4</octave>
          <alter>1</alter>
        </pitch>
        <notations>
          <technical>
            <fret>2</fret>
            <string>1</string>
          </technical>
        </notations>
      </note>
      <note>
        <duration>2640</duration>
        <staff>1</staff>
        <type>quarter</type>
        <voice>1</voice>
        <pitch>
          <step>E</step>
          <octave>4</octave>
        </pitch>
        <notations>
          <technical>
            <fret>0</fret>
            <string>1</string>
          </technical>
        </notations>
      </note>
      <note>
        <duration>2640</duration>
        <staff>1</staff>
        <type>quarter</type>
        <voice>1</voice>
        <pitch>
          <step>D</step>
          <octave>4</octave>
        </pitch>
        <notations>
          <technical>
            <fret>3</fret>
            <string>2</string>
          </technical>
        </notations>
      </note>
      <note>
        <duration>2640</duration>
        <staff>1</staff>
        <type>quarter</type>
        <voice>1</voice>
        <pitch>
          <step>G</step>
          <octave>2</octave>
        </pitch>
        <notations>
          <technical>
            <fret>3</fret>
            <string>6</string>
          </technical>
        </notations>
        <chord/>
      </note>
      <note>
        <duration>2640</duration>
        <staff>1</staff>
        <type>quarter</type>
        <voice>1</voice>
        <pitch>
          <step>G</step>
          <octave>3</octave>
        </pitch>
        <notations>
          <technical>
            <fret>0</fret>
            <string>3</string>
          </technical>
        </notations>
      </note>
    </measure>
    <measure number="16">
      <attributes>
        <divisions>2640</divisions>
        <time>
          <beats>4</beats>
          <beat-type>4</beat-type>
        </time>
      </attributes>
      <note>
        <duration>2640</duration>
        <staff>1</staff>
        <type>quarter</type>
        <voice>1</voice>
        <pitch>
          <step>D</step>
          <octave>3</octave>
        </pitch>
        <notations>
          <technical>
            <fret>0</fret>
            <string>4</string>
          </technical>
        </notations>
      </note>
      <note>
        <duration>2640</duration>
        <staff>1</staff>
        <type>quarter</type>
        <voice>1</voice>
        <pitch>
          <step>E</step>
          <octave>4</octave>
        </pitch>
        <notations>
          <technical>
            <fret>0</fret>
            <string>1</string>
          </technical>
        </notations>
      </note>
      <note>
        <duration>2640</duration>
        <staff>1</staff>
        <type>quarter</type>
        <voice>1</voice>
        <pitch>
          <step>D</step>
          <octave>4</octave>
        </pitch>
        <notations>
          <technical>
            <fret>3</fret>
            <string>2</string>
          </technical>
        </notations>
      </note>
      <note>
        <duration>2640</duration>
        <staff>1</staff>
        <type>quarter</type>
        <voice>1</voice>
        <pitch>
          <step>B</step>
          <octave>3</octave>
        </pitch>
        <notations>
          <technical>
            <fret>0</fret>
            <string>2</string>
          </technical>
        </notations>
      </note>
      <note>
        <duration>2640</duration>
        <staff>1</staff>
        <type>quarter</type>
        <voice>1</voice>
        <pitch>
          <step>G</step>
          <octave>2</octave>
        </pitch>
        <notations>
          <technical>
            <fret>3</fret>
            <string>6</string>
          </technical>
        </notations>
        <chord/>
      </note>
    </measure>
    <measure number="17">
      <attributes>
        <divisions>2640</divisions>
        <time>
          <beats>4</beats>
          <beat-type>4</beat-type>
        </time>
      </attributes>
      <note>
        <duration>2640</duration>
        <staff>1</staff>
        <type>quarter</type>
        <voice>1</voice>
        <pitch>
          <step>G</step>
          <octave>3</octave>
        </pitch>
        <notations>
          <technical>
            <fret>0</fret>
            <string>3</string>
          </technical>
        </notations>
      </note>
      <note>
        <duration>2640</duration>
        <staff>1</staff>
        <type>quarter</type>
        <voice>1</voice>
        <pitch>
          <step>D</step>
          <octave>3</octave>
        </pitch>
        <notations>
          <technical>
            <fret>0</fret>
            <string>4</string>
          </technical>
        </notations>
      </note>
      <note>
        <duration>2640</duration>
        <staff>1</staff>
        <type>quarter</type>
        <voice>1</voice>
        <pitch>
          <step>G</step>
          <octave>3</octave>
        </pitch>
        <notations>
          <technical>
            <fret>0</fret>
            <string>3</string>
          </technical>
        </notations>
      </note>
      <note>
        <duration>2640</duration>
        <staff>1</staff>
        <type>quarter</type>
        <voice>1</voice>
        <pitch>
          <step>B</step>
          <octave>3</octave>
        </pitch>
        <notations>
          <technical>
            <fret>0</fret>
            <string>2</string>
          </technical>
        </notations>
      </note>
    </measure>
    <measure number="18">
      <attributes>
        <divisions>2640</divisions>
        <time>
          <beats>4</beats>
          <beat-type>4</beat-type>
        </time>
      </attributes>
      <note>
        <duration>2640</duration>
        <staff>1</staff>
        <type>quarter</type>
        <voice>1</voice>
        <rest/>
      </note>
      <note>
        <duration>2640</duration>
        <staff>1</staff>
        <type>quarter</type>
        <voice>1</voice>
        <rest/>
      </note>
      <note>
        <duration>2640</duration>
        <staff>1</staff>
        <type>quarter</type>
        <voice>1</voice>
        <rest/>
      </note>
      <note>
        <duration>2640</duration>
        <staff>1</staff>
        <type>quarter</type>
        <voice>1</voice>
        <rest/>
      </note>
    </measure>
    <measure number="19">
      <attributes>
        <divisions>2640</divisions>
        <time>
          <beats>4</beats>
          <beat-type>4</beat-type>
        </time>
      </attributes>
      <note>
        <duration>2640</duration>
        <staff>1</staff>
        <type>quarter</type>
        <voice>1</voice>
        <pitch>
          <step>E</step>
          <octave>4</octave>
        </pitch>
        <notations>
          <technical>
            <fret>0</fret>
            <string>1</string>
          </technical>
        </notations>
      </note>
      <note>
        <duration>2640</duration>
        <staff>1</staff>
        <type>quarter</type>
        <voice>1</voice>
        <pitch>
          <step>G</step>
          <octave>2</octave>
        </pitch>
        <notations>
          <technical>
            <fret>3</fret>
            <string>6</string>
          </technical>
        </notations>
        <chord/>
      </note>
      <note>
        <duration>2640</duration>
        <staff>1</staff>
        <type>quarter</type>
        <voice>1</voice>
        <pitch>
          <step>G</step>
          <octave>3</octave>
        </pitch>
        <notations>
          <technical>
            <fret>0</fret>
            <string>3</string>
          </technical>
        </notations>
      </note>
      <note>
        <duration>2640</duration>
        <staff>1</staff>
        <type>quarter</type>
        <voice>1</voice>
        <pitch>
          <step>B</step>
          <octave>3</octave>
        </pitch>
        <notations>
          <technical>
            <fret>0</fret>
            <string>2</string>
          </technical>
        </notations>
      </note>
      <note>
        <duration>2640</duration>
        <staff>1</staff>
        <type>quarter</type>
        <voice>1</voice>
        <pitch>
          <step>G</step>
          <octave>3</octave>
        </pitch>
        <notations>
          <technical>
            <fret>0</fret>
            <string>3</string>
          </technical>
        </notations>
      </note>
    </measure>
    <measure number="20">
      <attributes>
        <divisions>2640</divisions>
        <time>
          <beats>4</beats>
          <beat-type>4</beat-type>
        </time>
      </attributes>
      <note>
        <duration>2640</duration>
        <staff>1</staff>
        <type>quarter</type>
        <voice>1</voice>
        <pitch>
          <step>E</step>
          <octave>4</octave>
        </pitch>
        <notations>
          <technical>
            <fret>0</fret>
            <string>1</string>
          </technical>
        </notations>
      </note>
      <note>
        <duration>2640</duration>
        <staff>1</staff>
        <type>quarter</type>
        <voice>1</voice>
        <pitch>
          <step>G</step>
          <octave>4</octave>
        </pitch>
        <notations>
          <technical>
            <fret>3</fret>
            <string>1</string>
          </technical>
        </notations>
      </note>
      <note>
        <duration>2640</duration>
        <staff>1</staff>
        <type>quarter</type>
        <voice>1</voice>
        <pitch>
          <step>D</step>
          <octave>3</octave>
        </pitch>
        <notations>
          <technical>
            <fret>0</fret>
            <string>4</string>
          </technical>
        </notations>
        <chord/>
      </note>
      <note>
        <duration>2640</duration>
        <staff>1</staff>
        <type>quarter</type>
        <voice>1</voice>
        <pitch>
          <step>G</step>
          <octave>3</octave>
        </pitch>
        <notations>
          <technical>
            <fret>0</fret>
            <string>3</string>
          </technical>
        </notations>
      </note>
      <note>
        <duration>2640</duration>
        <staff>1</staff>
        <type>quarter</type>
        <voice>1</voice>
        <pitch>
          <step>B</step>
          <octave>3</octave>
        </pitch>
        <notations>
          <technical>
            <fret>0</fret>
            <string>2</string>
          </technical>
        </notations>
      </note>
    </measure>
    <measure number="21">
      <attributes>
        <divisions>2640</divisions>
        <time>
          <beats>4</beats>
          <beat-type>4</beat-type>
        </time>
      </attributes>
      <note>
        <duration>2640</duration>
        <staff>1</staff>
        <type>quarter</type>
        <voice>1</voice>
        <pitch>
          <step>F</step>
          <octave>4</octave>
          <alter>1</alter>
        </pitch>
        <notations>
          <technical>
            <fret>2</fret>
            <string>1</string>
          </technical>
        </notations>
      </note>
      <note>
        <duration>2640</duration>
        <staff>1</staff>
        <type>quarter</type>
        <voice>1</voice>
        <pitch>
          <step>E</step>
          <octave>4</octave>
        </pitch>
        <notations>
          <technical>
            <fret>0</fret>
            <string>1</string>
          </technical>
        </notations>
      </note>
      <note>
        <duration>2640</duration>
        <staff>1</staff>
        <type>quarter</type>
        <voice>1</voice>
        <pitch>
          <step>D</step>
          <octave>4</octave>
        </pitch>
        <notations>
          <technical>
            <fret>3</fret>
            <string>2</string>
          </technical>
        </notations>
      </note>
      <note>
        <duration>2640</duration>
        <staff>1</staff>
        <type>quarter</type>
        <voice>1</voice>
        <pitch>
          <step>G</step>
          <octave>2</octave>
        </pitch>
        <notations>
          <technical>
            <fret>3</fret>
            <string>6</string>
          </technical>
        </notations>
        <chord/>
      </note>
      <note>
        <duration>2640</duration>
        <staff>1</staff>
        <type>quarter</type>
        <voice>1</voice>
        <pitch>
          <step>G</step>
          <octave>3</octave>
        </pitch>
        <notations>
          <technical>
            <fret>0</fret>
            <string>3</string>
          </technical>
        </notations>
      </note>
    </measure>
    <measure number="22">
      <attributes>
        <divisions>2640</divisions>
        <time>
          <beats>4</beats>
          <beat-type>4</beat-type>
        </time>
      </attributes>
      <note>
        <duration>2640</duration>
        <staff>1</staff>
        <type>quarter</type>
        <voice>1</voice>
        <pitch>
          <step>D</step>
          <octave>3</octave>
        </pitch>
        <notations>
          <technical>
            <fret>0</fret>
            <string>4</string>
          </technical>
        </notations>
      </note>
      <note>
        <duration>2640</duration>
        <staff>1</staff>
        <type>quarter</type>
        <voice>1</voice>
        <pitch>
          <step>E</step>
          <octave>4</octave>
        </pitch>
        <notations>
          <technical>
            <fret>0</fret>
            <string>1</string>
          </technical>
        </notations>
      </note>
      <note>
        <duration>2640</duration>
        <staff>1</staff>
        <type>quarter</type>
        <voice>1</voice>
        <pitch>
          <step>D</step>
          <octave>4</octave>
        </pitch>
        <notations>
          <technical>
            <fret>3</fret>
            <string>2</string>
          </technical>
        </notations>
      </note>
      <note>
        <duration>2640</duration>
        <staff>1</staff>
        <type>quarter</type>
        <voice>1</voice>
        <pitch>
          <step>B</step>
          <octave>3</octave>
        </pitch>
        <notations>
          <technical>
            <fret>0</fret>
            <string>2</string>
          </technical>
        </notations>
      </note>
      <note>
        <duration>2640</duration>
        <staff>1</staff>
        <type>quarter</type>
        <voice>1</voice>
        <pitch>
          <step>G</step>
          <octave>2</octave>
        </pitch>
        <notations>
          <technical>
            <fret>3</fret>
            <string>6</string>
          </technical>
        </notations>
        <chord/>
      </note>
    </measure>
    <measure number="23">
      <attributes>
        <divisions>2640</divisions>
        <time>
          <beats>4</beats>
          <beat-type>4</beat-type>
        </time>
      </attributes>
      <note>
        <duration>2640</duration>
        <staff>1</staff>
        <type>quarter</type>
        <voice>1</voice>
        <pitch>
          <step>G</step>
          <octave>3</octave>
        </pitch>
        <notations>
          <technical>
            <fret>0</fret>
            <string>3</string>
          </technical>
        </notations>
      </note>
      <note>
        <duration>2640</duration>
        <staff>1</staff>
        <type>quarter</type>
        <voice>1</voice>
        <pitch>
          <step>D</step>
          <octave>3</octave>
        </pitch>
        <notations>
          <technical>
            <fret>0</fret>
            <string>4</string>
          </technical>
        </notations>
      </note>
      <note>
        <duration>2640</duration>
        <staff>1</staff>
        <type>quarter</type>
        <voice>1</voice>
        <pitch>
          <step>G</step>
          <octave>3</octave>
        </pitch>
        <notations>
          <technical>
            <fret>0</fret>
            <string>3</string>
          </technical>
        </notations>
      </note>
      <note>
        <duration>2640</duration>
        <staff>1</staff>
        <type>quarter</type>
        <voice>1</voice>
        <pitch>
          <step>B</step>
          <octave>3</octave>
        </pitch>
        <notations>
          <technical>
            <fret>0</fret>
            <string>2</string>
          </technical>
        </notations>
      </note>
    </measure>
    <measure number="24">
      <attributes>
        <divisions>2640</divisions>
        <time>
          <beats>4</beats>
          <beat-type>4</beat-type>
        </time>
      </attributes>
      <note>
        <duration>2640</duration>
        <staff>1</staff>
        <type>quarter</type>
        <voice>1</voice>
        <rest/>
      </note>
      <note>
        <duration>2640</duration>
        <staff>1</staff>
        <type>quarter</type>
        <voice>1</voice>
        <rest/>
      </note>
      <note>
        <duration>2640</duration>
        <staff>1</staff>
        <type>quarter</type>
        <voice>1</voice>
        <rest/>
      </note>
      <note>
        <duration>2640</duration>
        <staff>1</staff>
        <type>quarter</type>
        <voice>1</voice>
        <rest/>
      </note>
    </measure>
    <measure number="25">
      <attributes>
        <divisions>2640</divisions>
        <time>
          <beats>4</beats>
          <beat-type>4</beat-type>
        </time>
      </attributes>
      <note>
        <duration>2640</duration>
        <staff>1</staff>
        <type>quarter</type>
        <voice>1</voice>
        <pitch>
          <step>A</step>
          <octave>4</octave>
        </pitch>
        <notations>
          <technical>
            <fret>5</fret>
            <string>1</string>
          </technical>
        </notations>
      </note>
      <note>
        <duration>2640</duration>
        <staff>1</staff>
        <type>quarter</type>
        <voice>1</voice>
        <pitch>
          <step>D</step>
          <octave>3</octave>
        </pitch>
        <notations>
          <technical>
            <fret>0</fret>
            <string>4</string>
          </technical>
        </notations>
        <chord/>
      </note>
      <note>
        <duration>2640</duration>
        <staff>1</staff>
        <type>quarter</type>
        <voice>1</voice>
        <pitch>
          <step>G</step>
          <octave>3</octave>
        </pitch>
        <notations>
          <technical>
            <fret>0</fret>
            <string>3</string>
          </technical>
        </notations>
      </note>
      <note>
        <duration>2640</duration>
        <staff>1</staff>
        <type>quarter</type>
        <voice>1</voice>
        <pitch>
          <step>B</step>
          <octave>3</octave>
        </pitch>
        <notations>
          <technical>
            <fret>0</fret>
            <string>2</string>
          </technical>
        </notations>
      </note>
      <note>
        <duration>2640</duration>
        <staff>1</staff>
        <type>quarter</type>
        <voice>1</voice>
        <pitch>
          <step>G</step>
          <octave>3</octave>
        </pitch>
        <notations>
          <technical>
            <fret>0</fret>
            <string>3</string>
          </technical>
        </notations>
      </note>
    </measure>
    <measure number="26">
      <attributes>
        <divisions>2640</divisions>
        <time>
          <beats>4</beats>
          <beat-type>4</beat-type>
        </time>
      </attributes>
      <note>
        <duration>2640</duration>
        <staff>1</staff>
        <type>quarter</type>
        <voice>1</voice>
        <pitch>
          <step>A</step>
          <octave>4</octave>
        </pitch>
        <notations>
          <technical>
            <fret>5</fret>
            <string>1</string>
          </technical>
        </notations>
      </note>
      <note>
        <duration>2640</duration>
        <staff>1</staff>
        <type>quarter</type>
        <voice>1</voice>
        <pitch>
          <step>C</step>
          <octave>5</octave>
        </pitch>
        <notations>
          <technical>
            <fret>8</fret>
            <string>1</string>
          </technical>
        </notations>
      </note>
      <note>
        <duration>2640</duration>
        <staff>1</staff>
        <type>quarter</type>
        <voice>1</voice>
        <pitch>
          <step>D</step>
          <octave>3</octave>
        </pitch>
        <notations>
          <technical>
            <fret>0</fret>
            <string>4</string>
          </technical>
        </notations>
        <chord/>
      </note>
      <note>
        <duration>2640</duration>
        <staff>1</staff>
        <type>quarter</type>
        <voice>1</voice>
        <pitch>
          <step>G</step>
          <octave>3</octave>
        </pitch>
        <notations>
          <technical>
            <fret>0</fret>
            <string>3</string>
          </technical>
        </notations>
      </note>
      <note>
        <duration>2640</duration>
        <staff>1</staff>
        <type>quarter</type>
        <voice>1</voice>
        <pitch>
          <step>B</step>
          <octave>3</octave>
        </pitch>
        <notations>
          <technical>
            <fret>0</fret>
            <string>2</string>
          </technical>
        </notations>
      </note>
    </measure>
    <measure number="27">
      <attributes>
        <divisions>2640</divisions>
        <time>
          <beats>4</beats>
          <beat-type>4</beat-type>
        </time>
      </attributes>
      <note>
        <duration>2640</duration>
        <staff>1</staff>
        <type>quarter</type>
        <voice>1</voice>
        <pitch>
          <step>A</step>
          <octave>4</octave>
        </pitch>
        <notations>
          <technical>
            <fret>5</fret>
            <string>1</string>
          </technical>
        </notations>
      </note>
      <note>
        <duration>2640</duration>
        <staff>1</staff>
        <type>quarter</type>
        <voice>1</voice>
        <pitch>
          <step>F</step>
          <octave>4</octave>
          <alter>1</alter>
        </pitch>
        <notations>
          <technical>
            <fret>2</fret>
            <string>1</string>
          </technical>
        </notations>
      </note>
      <note>
        <duration>2640</duration>
        <staff>1</staff>
        <type>quarter</type>
        <voice>1</voice>
        <pitch>
          <step>G</step>
          <octave>4</octave>
        </pitch>
        <notations>
          <technical>
            <fret>3</fret>
            <string>1</string>
          </technical>
        </notations>
      </note>
      <note>
        <duration>2640</duration>
        <staff>1</staff>
        <type>quarter</type>
        <voice>1</voice>
        <pitch>
          <step>D</step>
          <octave>3</octave>
        </pitch>
        <notations>
          <technical>
            <fret>0</fret>
            <string>4</string>
          </technical>
        </notations>
        <chord/>
      </note>
      <note>
        <duration>2640</duration>
        <staff>1</staff>
        <type>quarter</type>
        <voice>1</voice>
        <pitch>
          <step>G</step>
          <octave>3</octave>
        </pitch>
        <notations>
          <technical>
            <fret>0</fret>
            <string>3</string>
          </technical>
        </notations>
      </note>
    </measure>
    <measure number="28">
      <attributes>
        <divisions>2640</divisions>
        <time>
          <beats>4</beats>
          <beat-type>4</beat-type>
        </time>
      </attributes>
      <note>
        <duration>2640</duration>
        <staff>1</staff>
        <type>quarter</type>
        <voice>1</voice>
        <pitch>
          <step>B</step>
          <octave>3</octave>
        </pitch>
        <notations>
          <technical>
            <fret>0</fret>
            <string>2</string>
          </technical>
        </notations>
      </note>
      <note>
        <duration>2640</duration>
        <staff>1</staff>
        <type>quarter</type>
        <voice>1</voice>
        <pitch>
          <step>G</step>
          <octave>3</octave>
        </pitch>
        <notations>
          <technical>
            <fret>0</fret>
            <string>3</string>
          </technical>
        </notations>
      </note>
      <note>
        <duration>2640</duration>
        <staff>1</staff>
        <type>quarter</type>
        <voice>1</voice>
        <pitch>
          <step>B</step>
          <octave>3</octave>
        </pitch>
        <notations>
          <technical>
            <fret>0</fret>
            <string>2</string>
          </technical>
        </notations>
      </note>
      <note>
        <duration>2640</duration>
        <staff>1</staff>
        <type>quarter</type>
        <voice>1</voice>
        <pitch>
          <step>B</step>
          <octave>4</octave>
        </pitch>
        <notations>
          <technical>
            <fret>7</fret>
            <string>1</string>
          </technical>
        </notations>
      </note>
      <note>
        <duration>2640</duration>
        <staff>1</staff>
        <type>quarter</type>
        <voice>1</voice>
        <pitch>
          <step>D</step>
          <octave>3</octave>
        </pitch>
        <notations>
          <technical>
            <fret>0</fret>
            <string>4</string>
          </technical>
        </notations>
        <chord/>
      </note>
    </measure>
    <measure number="29">
      <attributes>
        <divisions>2640</divisions>
        <time>
          <beats>4</beats>
          <beat-type>4</beat-type>
        </time>
      </attributes>
      <note>
        <duration>2640</duration>
        <staff>1</staff>
        <type>quarter</type>
        <voice>1</voice>
        <rest/>
      </note>
      <note>
        <duration>2640</duration>
        <staff>1</staff>
        <type>quarter</type>
        <voice>1</voice>
        <rest/>
      </note>
      <note>
        <duration>2640</duration>
        <staff>1</staff>
        <type>quarter</type>
        <voice>1</voice>
        <rest/>
      </note>
      <note>
        <duration>2640</duration>
        <staff>1</staff>
        <type>quarter</type>
        <voice>1</voice>
        <rest/>
      </note>
    </measure>
    <measure number="30">
      <attributes>
        <divisions>2640</divisions>
        <time>
          <beats>4</beats>
          <beat-type>4</beat-type>
        </time>
      </attributes>
      <note>
        <duration>2640</duration>
        <staff>1</staff>
        <type>quarter</type>
        <voice>1</voice>
        <rest/>
      </note>
      <note>
        <duration>2640</duration>
        <staff>1</staff>
        <type>quarter</type>
        <voice>1</voice>
        <rest/>
      </note>
      <note>
        <duration>2640</duration>
        <staff>1</staff>
        <type>quarter</type>
        <voice>1</voice>
        <rest/>
      </note>
      <note>
        <duration>2640</duration>
        <staff>1</staff>
        <type>quarter</type>
        <voice>1</voice>
        <rest/>
      </note>
    </measure>
    <measure number="31">
      <attributes>
        <divisions>2640</divisions>
        <time>
          <beats>4</beats>
          <beat-type>4</beat-type>
        </time>
      </attributes>
      <note>
        <duration>2640</duration>
        <staff>1</staff>
        <type>quarter</type>
        <voice>1</voice>
        <pitch>
          <step>G</step>
          <octave>4</octave>
        </pitch>
        <notations>
          <technical>
            <fret>3</fret>
            <string>1</string>
          </technical>
        </notations>
      </note>
      <note>
        <duration>2640</duration>
        <staff>1</staff>
        <type>quarter</type>
        <voice>1</voice>
        <pitch>
          <step>D</step>
          <octave>3</octave>
        </pitch>
        <notations>
          <technical>
            <fret>0</fret>
            <string>4</string>
          </technical>
        </notations>
        <chord/>
      </note>
      <note>
        <duration>2640</duration>
        <staff>1</staff>
        <type>quarter</type>
        <voice>1</voice>
        <pitch>
          <step>D</step>
          <octave>4</octave>
        </pitch>
        <notations>
          <technical>
            <fret>3</fret>
            <string>2</string>
          </technical>
        </notations>
      </note>
      <note>
        <duration>2640</duration>
        <staff>1</staff>
        <type>quarter</type>
        <voice>1</voice>
        <pitch>
          <step>B</step>
          <octave>3</octave>
        </pitch>
        <notations>
          <technical>
            <fret>0</fret>
            <string>2</string>
          </technical>
        </notations>
      </note>
      <note>
        <duration>2640</duration>
        <staff>1</staff>
        <type>quarter</type>
        <voice>1</voice>
        <pitch>
          <step>D</step>
          <octave>4</octave>
        </pitch>
        <notations>
          <technical>
            <fret>3</fret>
            <string>2</string>
          </technical>
        </notations>
      </note>
    </measure>
    <measure number="32">
      <attributes>
        <divisions>2640</divisions>
        <time>
          <beats>4</beats>
          <beat-type>4</beat-type>
        </time>
      </attributes>
      <note>
        <duration>2640</duration>
        <staff>1</staff>
        <type>quarter</type>
        <voice>1</voice>
        <pitch>
          <step>C</step>
          <octave>4</octave>
        </pitch>
        <notations>
          <technical>
            <fret>1</fret>
            <string>2</string>
          </technical>
        </notations>
      </note>
      <note>
        <duration>2640</duration>
        <staff>1</staff>
        <type>quarter</type>
        <voice>1</voice>
        <pitch>
          <step>A</step>
          <octave>3</octave>
        </pitch>
        <notations>
          <technical>
            <fret>2</fret>
            <string>3</string>
          </technical>
        </notations>
      </note>
      <note>
        <duration>2640</duration>
        <staff>1</staff>
        <type>quarter</type>
        <voice>1</voice>
        <pitch>
          <step>G</step>
          <octave>3</octave>
        </pitch>
        <notations>
          <technical>
            <fret>0</fret>
            <string>3</string>
          </technical>
        </notations>
      </note>
      <note>
        <duration>2640</duration>
        <staff>1</staff>
        <type>quarter</type>
        <voice>1</voice>
        <rest/>
      </note>
    </measure>
  </part>
</score-partwise>
